<svg xmlns="http://www.w3.org/2000/svg" height="181.33" viewBox="83.733 208.442 519.448 181.33" width="519.45"><path d="M227.92 385.4c-8.739-2.185-10.923-8.739-10.923-17.478v-2.185h-48.064v2.185c0 8.738-2.185 15.293-10.923 17.478-2.117.529-2.185 4.37 0 4.37h69.91c2.16 0 2.1-3.84-.02-4.37zm65.54-66.4v13.973H92.47v-115.79h200.99v24.546h8.708l-.008-28.232c-.213-2.821-2.543-5.052-5.419-5.052H89.201c-2.876 0-5.21 2.231-5.421 5.052l-.041 140.23a5.461 5.461 0 0 0 5.462 5.462h207.54a5.461 5.461 0 0 0 5.462-5.462l-.011-34.728h-8.73z" fill="#fff"/><path d="M121.15 292.52h2.438c1.101 0 1.651-.629 1.73-1.73l3.618-45.377h10.696l11.482 26.582c1.337 3.224 2.752 7.471 2.752 7.471h.157s1.416-4.247 2.752-7.471l11.482-26.582h10.695l3.618 45.377c.079 1.101.629 1.73 1.73 1.73h2.438v8.729h-8.887c-3.696 0-4.955-1.572-5.269-5.348l-1.888-24.852c-.314-3.696-.079-8.651-.079-8.651h-.157s-1.651 5.505-3.067 8.651l-9.28 20.604h-8.336l-9.28-20.604c-1.416-3.146-3.067-8.729-3.067-8.729h-.157s.236 5.033-.079 8.729l-1.809 24.852c-.314 3.775-1.651 5.348-5.348 5.348h-8.887v-8.73zm76.68 16.83c2.752 0 5.19-1.651 6.606-5.112l1.337-3.066-13.37-30.121c-.472-1.18-1.022-1.416-2.123-1.416h-1.18v-8.494h6.606c2.831 0 4.247 1.022 5.269 3.775l7.864 20.054c.787 2.045 1.416 5.348 1.416 5.348h.157s.629-3.303 1.337-5.348l6.842-20.054c.944-2.752 2.595-3.775 5.348-3.775h6.764v8.494h-1.18c-1.18 0-1.809.236-2.281 1.416l-14.392 36.255c-2.832 7.235-8.494 10.46-14.471 10.46-6.292 0-10.145-4.09-10.145-4.09l3.854-7.078c-.02.01 2.42 2.76 5.72 2.76zm54.35-55.2h-8.572c-1.101 0-1.73.629-1.73 1.73v3.382h-9.044v-8.808c0-3.696 1.258-5.033 5.033-5.033h38.929c3.775 0 5.033 1.337 5.033 5.033v8.808h-9.044v-3.382c0-1.101-.629-1.73-1.73-1.73h-8.572v47.107H252.18v-47.11zm33.66 17.22c0-1.18-.629-1.73-1.73-1.73h-3.146v-8.494h9.516c3.696 0 5.269 1.651 5.269 5.269v18.481c0 4.876 1.258 8.179 6.213 8.179 7.235 0 11.246-6.371 11.246-13.527v-18.403h9.988v29.963c0 1.101.629 1.73 1.73 1.73h3.146v8.415h-9.202c-3.46 0-5.269-1.651-5.269-4.483v-1.101c0-.944.079-1.809.079-1.809h-.157c-1.887 4.168-6.92 8.337-13.841 8.337-8.572 0-13.841-4.326-13.841-15.257v-15.58zm50.49-2.28h-5.19v-7.943h5.427v-10.932h9.751v10.932h9.123v7.943h-9.123v16.201c0 6.606 5.19 7.55 7.943 7.55 1.101 0 1.809-.157 1.809-.157v8.729s-1.258.236-3.067.236c-5.584 0-16.673-1.651-16.673-15.1v-17.46zm46.25-8.89c12.269 0 22.021 8.729 22.021 20.998 0 12.347-9.752 20.999-22.021 20.999-12.189 0-21.941-8.651-21.941-20.999-.01-12.27 9.74-21 21.94-21zm0 33.5c6.528 0 11.954-5.033 11.954-12.504 0-7.393-5.426-12.504-11.954-12.504-6.449 0-11.875 5.112-11.875 12.504 0 7.47 5.43 12.5 11.88 12.5zm31.06-22.33c0-1.18-.629-1.73-1.73-1.73h-3.146v-8.494h9.123c3.539 0 5.348 1.494 5.348 4.876v2.359c0 1.494-.157 2.517-.157 2.517h.157c1.809-5.741 6.605-10.302 12.739-10.302.865 0 1.81.157 1.81.157v9.831s-1.022-.157-2.438-.157c-4.246 0-9.122 2.438-10.931 8.415-.551 1.966-.865 4.168-.865 6.527v15.886h-9.91v-29.91zm31.15-15.49c-.315-1.337-1.18-1.73-2.517-1.73h-1.494v-8.729h6.685c3.932 0 6.056.943 6.92 4.561l7.629 33.267c.708 3.146.943 5.898.943 5.898h.157s.314-2.674 1.18-5.898l10.146-37.67h8.729l9.595 37.67c.864 3.224 1.101 5.898 1.101 5.898h.157s.236-2.752.944-5.898l7.707-33.267c.786-3.618 2.909-4.561 6.842-4.561h6.764v8.729h-1.495c-1.415 0-2.201.393-2.517 1.73l-11.639 45.377h-11.875l-8.494-31.615a65.764 65.764 0 0 1-1.415-6.921h-.157s-.473 3.303-1.495 6.921l-8.887 31.615h-11.953l-11.55-45.38zm91.46 4.32c11.481 0 17.773 8.415 17.773 19.032 0 1.18-.236 3.696-.236 3.696h-27.683c.786 7.078 5.977 10.774 12.032 10.774 6.449 0 11.246-4.483 11.246-4.483l4.168 6.921s-6.134 6.056-16.121 6.056c-13.291 0-21.549-9.595-21.549-20.999 0-12.35 8.34-21 20.37-21zm7.55 15.81c-.157-4.797-3.461-8.1-7.55-8.1-5.112 0-8.729 3.067-9.831 8.1h17.38zm19.59-20.37c0-1.18-.629-1.73-1.73-1.73h-3.146v-8.493h9.516c3.696 0 5.348 1.651 5.348 5.348v11.639c0 1.966-.157 3.382-.157 3.382h.157s3.539-5.584 12.033-5.584c10.853 0 17.773 8.572 17.773 20.998 0 12.74-7.786 20.999-18.403 20.999-8.336 0-11.953-5.663-11.953-5.663h-.157s.157 1.101.157 2.674v2.045h-9.438v-45.62zm19.66 38.14c5.426 0 10.066-4.483 10.066-12.426 0-7.628-4.09-12.583-9.988-12.583-5.19 0-10.066 3.775-10.066 12.662 0 6.22 3.3 12.35 9.99 12.35z" fill="#fff"/></svg>