<?xml version="1.0" standalone="no"?>
<!DOCTYPE svg PUBLIC "-//W3C//DTD SVG 20010904//EN"
 "http://www.w3.org/TR/2001/REC-SVG-20010904/DTD/svg10.dtd">
<svg version="1.0" xmlns="http://www.w3.org/2000/svg"
 width="16.000000pt" height="16.000000pt" viewBox="0 0 16.000000 16.000000"
 preserveAspectRatio="xMidYMid meet">
<metadata>
Created by potrace 1.11, written by Peter Selinger 2001-2013
</metadata>
<g transform="translate(0.000000,16.000000) scale(0.003042,-0.003042)"
fill="#000000" stroke="none">
<path d="M2425 4085 c-31 -13 -63 -29 -73 -36 -45 -35 -94 -99 -114 -149 -21
-52 -23 -75 -28 -395 l-5 -340 -31 -55 c-25 -44 -42 -60 -86 -83 -125 -65
-311 -30 -361 67 -35 67 -37 90 -38 387 0 238 -3 309 -15 351 -39 135 -139
217 -284 235 -176 22 -327 -43 -391 -170 -42 -82 -45 -115 -44 -507 l1 -375
-41 -40 c-23 -22 -82 -76 -131 -120 -49 -44 -102 -93 -118 -109 -22 -22 -40
-30 -73 -32 -59 -4 -107 -29 -147 -75 -18 -22 -39 -39 -46 -39 -25 0 -116 -52
-142 -81 -42 -47 -69 -112 -71 -173 -2 -51 -5 -57 -37 -78 -42 -28 -70 -80
-70 -128 0 -23 -9 -45 -26 -65 -74 -86 -69 -217 11 -287 22 -19 25 -28 20 -59
-14 -82 41 -172 113 -185 18 -4 32 -12 32 -21 0 -22 36 -86 62 -110 30 -28 89
-53 127 -53 25 0 30 -5 36 -32 25 -113 155 -198 283 -185 71 7 111 27 166 82
78 80 76 59 76 807 0 724 3 689 -61 743 l-33 27 40 36 c21 19 51 47 66 60 l27
24 65 -58 65 -58 -30 -15 c-17 -8 -42 -30 -57 -49 l-27 -35 1 -681 c0 -672 0
-682 21 -726 60 -126 192 -185 327 -146 72 21 146 90 168 157 10 29 21 45 34
47 96 14 163 63 189 138 9 28 21 41 41 48 81 26 120 87 111 173 -5 45 -3 55
13 63 36 19 72 95 72 153 1 59 -27 126 -63 151 -15 10 -20 21 -16 36 12 47
-50 160 -89 160 -10 0 -14 13 -14 43 0 129 -91 247 -208 272 -18 4 -37 16 -43
27 -24 45 -82 81 -144 91 -30 4 -46 16 -118 82 -35 33 -108 100 -161 149 l-97
89 3 381 c3 370 4 382 25 422 28 52 80 98 130 115 56 19 170 17 225 -4 57 -22
113 -82 127 -135 6 -22 11 -164 12 -333 2 -327 8 -371 62 -452 66 -98 170
-142 326 -135 76 3 107 9 152 30 96 44 158 123 185 236 8 36 13 151 13 358 l1
305 26 55 c18 37 39 63 65 81 105 70 278 62 359 -16 66 -63 70 -91 70 -519 0
-350 -1 -373 -17 -370 -16 3 -18 16 -18 108 1 58 -3 108 -7 111 -5 3 -56 5
-113 4 -174 -3 -182 -16 -183 -270 0 -99 -1 -192 -1 -207 -1 -27 -4 -28 -48
-28 -57 0 -109 -28 -123 -66 -6 -15 -10 -307 -10 -761 l0 -735 34 -34 34 -34
1434 2 1433 3 3 110 3 110 -533 0 -533 0 -3 34 c-2 19 -1 43 2 55 5 21 5 21
453 21 246 -1 460 3 474 8 15 4 37 19 50 33 l24 26 1 825 c1 825 1 825 -20
856 -12 18 -35 37 -52 42 -20 6 -408 10 -1085 10 l-1054 0 -3 -113 c-2 -100
-5 -113 -20 -110 -15 3 -17 35 -17 383 -1 373 -1 382 -25 455 -32 101 -95 166
-191 197 -91 30 -227 29 -304 -2z m1250 -2617 c6 -6 9 -55 6 -93 -1 -8 -171
-13 -227 -6 -6 0 -11 23 -11 54 l-1 52 113 0 c62 0 117 -3 120 -7z"/>
</g>
</svg>
